# xmcd
#
# Track frame offsets:
#	150
#	16777
#	34162
#	44730
#	55747
#	61775
#	71825
#	87500
#	102327
#	123452
#	141430
#	167902
#	181815
#	194012
#	204317
#
# Disc length: 2992 seconds
#
# Revision: 0
# Processed by: cddbd v1.5.2PL0 Copyright (c) Steve Scherf et al.
# Submitted via: audiograbber 1.83.01
#
DISCID=dd0bae0f
DTITLE=Blues - Blues - Nostalgie -Série Gold - CD2
DYEAR=1998
DGENRE=Blues
TTITLE0=Taj Mahal - Freight Train Blues
TTITLE1=Jonny Guitar Watson - Bow Wow 
TTITLE2=Lightning Hopkins - Nothing But The Blues
TTITLE3=Eric Clapton - Snake Drive
TTITLE4=Ray Charles - Blues Is My Middle Name
TTITLE5=The Yardbirds - J Wish You Would
TTITLE6=Peter Frampton and Keith Richards - Lovin Cup
TTITLE7=Johnny Winter - Self Destruction Blues
TTITLE8=Rod Stewart - Bright Lights Big City
TTITLE9=Spencer Davis - Crossfire
TTITLE10=Wolfman Jack - Stormy Monday
TTITLE11=Don Fardon - Cocktail Bar Blues
TTITLE12=Hall and Oates - Deep River Blues
TTITLE13=Canned heat - Spoonful
TTITLE14=Etta James - J'd Ratther Go Blind
EXTD=
EXTT0=
EXTT1=
EXTT2=
EXTT3=
EXTT4=
EXTT5=
EXTT6=
EXTT7=
EXTT8=
EXTT9=
EXTT10=
EXTT11=
EXTT12=
EXTT13=
EXTT14=
PLAYORDER=
